PathFileType	4	(X/Y/Z)	SUBJ51_3_walk_RCNL2025.trc
DataRate	CameraRate	NumFrames	NumMarkers	Units	OrigDataRate	OrigDataStartFrame	OrigNumFrames
100	100	6	25	mm	100	69	275
Frame#	Time	R_Shoulder			L_Shoulder			C7			J_Notch			R_Elbow			L_Elbow			R_Wrist			L_Wrist			R_Asis			L_Asis			Sacral			Thoracic			Sternum			R_Thigh_Lateral			R_Knee_Lateral			R_Shank_Lateral			R_Ankle_Lateral			R_Heel			R_Toe			L_Thigh_Lateral			L_Knee_Lateral			L_Shank_Lateral			L_Ankle_Lateral			L_Heel			L_Toe		
		X1	Y1	Z1	X2	Y2	Z2	X3	Y3	Z3	X4	Y4	Z4	X5	Y5	Z5	X6	Y6	Z6	X7	Y7	Z7	X8	Y8	Z8	X9	Y9	Z9	X10	Y10	Z10	X11	Y11	Z11	X12	Y12	Z12	X13	Y13	Z13	X14	Y14	Z14	X15	Y15	Z15	X16	Y16	Z16	X17	Y17	Z17	X18	Y18	Z18	X19	Y19	Z19	X20	Y20	Z20	X21	Y21	Z21	X22	Y22	Z22	X23	Y23	Z23	X24	Y24	Z24	X25	Y25	Z25
69	0.68000000	-1561.515747	1488.444580	419.294220	-1553.396118	1478.375122	-36.651566	-1624.156494	1610.439819	173.530624	-1496.563354	1479.393311	187.120834	-1654.418945	1199.549927	525.005737	-1619.081543	1166.064453	-124.812706	-1562.034241	945.444397	521.570831	-1527.486938	920.601166	-113.348877	-1528.676392	1044.968140	336.679291	-1509.917236	1031.320557	97.360428	-1734.855469	1072.297974	198.414154	-1745.015259	1394.239258	181.344955	-1463.041626	1251.270874	203.121384	-1479.543823	662.589661	440.242218	-1469.675903	542.213867	393.471710	-1612.397339	389.994934	437.913452	-1745.723389	206.829346	311.527863	-1773.882080	228.749176	242.330139	-1651.614014	76.628288	317.896820	-1590.762329	638.700134	2.073694	-1611.950562	520.713806	52.884575	-1644.062134	330.275391	17.406143	-1654.310791	64.721062	134.947403	-1706.305786	72.884102	190.906342	-1497.662231	40.763718	155.167587
70	0.69000000	-1548.610352	1487.813110	419.078186	-1538.490112	1479.130859	-36.814285	-1610.221069	1610.385864	173.170624	-1482.714233	1479.324463	186.985825	-1645.715332	1199.060425	522.699890	-1599.085449	1166.796509	-127.280174	-1560.023621	942.507904	519.014084	-1499.345398	924.763763	-115.337021	-1514.499146	1045.512573	335.297638	-1497.115356	1031.015137	96.324409	-1721.512451	1072.359619	198.496231	-1731.180908	1394.250488	180.312103	-1449.406738	1251.217651	202.417679	-1459.173950	665.195251	439.454529	-1447.143066	544.546997	392.503510	-1582.370361	385.080627	437.804688	-1707.745483	195.649261	312.116089	-1738.226929	215.453339	243.350418	-1604.980225	72.768623	317.522644	-1583.872681	638.581604	1.973176	-1607.804688	520.755737	52.650627	-1642.089233	330.707428	17.267366	-1654.169434	65.106438	135.093857	-1706.016724	73.454178	191.025543	-1497.569092	40.673607	155.116791
71	0.70000000	-1535.582275	1486.815552	418.872131	-1523.569214	1479.527588	-36.909790	-1596.274048	1610.050659	172.844742	-1468.852295	1478.960938	186.842972	-1637.023804	1198.322510	520.413757	-1579.173218	1167.340454	-129.732285	-1557.922668	939.491272	516.332413	-1471.434448	929.004913	-117.247608	-1500.405884	1045.668213	334.027069	-1484.418457	1030.399536	95.421982	-1708.215820	1072.139893	198.708054	-1717.362427	1394.020630	179.414856	-1435.765747	1250.839600	201.722382	-1439.308105	667.319702	438.472839	-1425.331055	546.447876	391.290588	-1552.192261	379.644318	437.671143	-1668.843750	183.907257	312.865723	-1701.639648	201.362595	244.624191	-1557.671997	69.126678	316.967926	-1576.490356	638.277466	1.941008	-1603.006226	520.658752	52.508545	-1639.376221	330.985870	17.238382	-1653.954956	65.496887	135.285080	-1705.664307	74.079491	191.180923	-1497.434570	40.576656	155.079468
72	0.71000000	-1522.444824	1485.479492	418.696136	-1508.642212	1479.576782	-36.935852	-1582.304810	1609.444336	172.561478	-1454.971069	1478.308716	186.693710	-1628.306396	1197.360474	518.153198	-1559.323364	1167.710327	-132.156097	-1555.692200	936.421478	513.578705	-1443.797729	933.300354	-119.085964	-1486.371948	1045.425293	332.905121	-1471.793945	1029.464600	94.618660	-1694.952515	1071.654541	199.053268	-1703.553711	1393.559082	178.672745	-1422.115356	1250.141113	201.021347	-1419.966431	668.939209	437.299957	-1404.273071	547.882996	389.854828	-1521.907471	373.795532	437.508179	-1629.002075	171.809143	313.751434	-1664.017334	186.686615	246.090195	-1509.818604	65.830193	316.312988	-1568.611084	637.768372	1.983080	-1597.551880	520.406799	52.468945	-1635.936890	331.096893	17.339426	-1653.648071	65.884453	135.547028	-1705.241455	74.757950	191.410355	-1497.245239	40.473248	155.060242
73	0.72000000	-1509.214722	1483.840576	418.567596	-1493.721069	1479.302246	-36.893669	-1568.303833	1608.578857	172.329224	-1441.064453	1477.375244	186.544525	-1619.513550	1196.202881	515.923035	-1539.525146	1167.928467	-134.538651	-1553.297363	933.332275	510.807251	-1416.472717	937.627808	-120.853943	-1472.364868	1044.787109	331.961426	-1459.215210	1028.207153	93.882088	-1681.702637	1070.915649	199.529510	-1689.748901	1392.876099	178.098450	-1408.453247	1249.128784	200.300598	-1401.186646	670.034546	435.935150	-1384.005127	548.821716	388.220123	-1491.581787	367.646729	437.303802	-1588.226685	159.586563	314.746124	-1625.277832	171.675858	247.679077	-1461.560791	63.008163	315.643341	-1560.278809	637.052002	2.100377	-1591.491211	519.998962	52.537518	-1631.870361	331.057465	17.574766	-1653.245483	66.269623	135.896561	-1704.742920	75.486038	191.741516	-1496.991089	40.363926	155.062881
74	0.73000000	-1495.909424	1481.939331	418.499542	-1478.817505	1478.734985	-36.787308	-1554.264282	1607.467407	172.154999	-1427.126587	1476.170654	186.405426	-1610.590576	1194.876465	513.726807	-1519.779053	1168.019653	-136.866669	-1550.705688	930.257477	508.064056	-1389.490417	941.968109	-122.549717	-1458.355103	1043.766602	331.214355	-1446.663696	1026.633545	93.191666	-1668.440796	1069.932739	200.128967	-1675.942993	1391.982788	177.694580	-1394.777100	1247.811768	199.552200	-1383.024902	670.582458	434.374634	-1364.567505	549.239868	386.411682	-1461.303223	361.315704	437.042267	-1546.554810	147.495163	315.817749	-1585.374756	156.614319	249.315811	-1413.050293	60.800194	315.043823	-1551.577026	636.145874	2.286661	-1584.916382	519.452515	52.711205	-1627.339233	330.911011	17.931547	-1652.758789	66.660530	136.336731	-1704.162720	76.261177	192.179840	-1496.672363	40.250397	155.088852
